<svg width="2147" height="280" viewBox="0 0 2147 280" fill="none" xmlns="http://www.w3.org/2000/svg">
<path d="M120.24 236.64C60.7 236.64 22.74 199.46 22.74 140.18C22.74 80.64 60.7 43.46 120.24 43.46C179.52 43.46 217.22 80.64 217.22 140.18C217.22 199.46 179.52 236.64 120.24 236.64ZM41.98 140.18C41.98 189.32 72.4 220 120.24 220C167.56 220 197.98 189.32 197.98 140.18C197.98 90.78 167.56 60.1 120.24 60.1C72.4 60.1 41.98 90.78 41.98 140.18ZM67.46 140.18C67.46 106.12 86.7 81.68 120.5 81.68C149.88 81.68 168.08 100.66 170.68 123.54H152.48C151.44 117.3 145.46 99.88 121.28 99.88C93.98 99.88 86.7 119.38 86.7 140.18C86.7 160.72 93.98 180.22 121.28 180.22C145.46 180.22 151.44 163.58 152.48 156.3H170.68C169.12 179.44 151.44 198.42 122.58 198.42C87.74 198.42 67.46 174.5 67.46 140.18ZM289.128 233V47.1H417.828V67.9H312.528V126.4H405.348V147.2H312.528V212.2H420.948V233H289.128ZM484.323 236.64C451.043 236.64 424.523 210.38 424.523 166.7C424.523 123.02 451.043 96.76 484.323 96.76C505.643 96.76 518.123 106.12 525.923 117.56H526.443V47.1H547.243V233H526.443V216.62H525.923C518.123 226.76 505.643 236.64 484.323 236.64ZM446.363 166.7C446.363 192.7 459.103 218.44 486.403 218.44C511.103 218.44 526.443 197.9 526.443 166.7C526.443 135.5 511.103 114.96 486.403 114.96C459.103 114.96 446.363 140.7 446.363 166.7ZM612.905 236.64C588.725 236.64 568.445 223.38 568.445 192.96V100.4H589.245V187.76C589.245 204.92 597.305 218.44 618.105 218.44C641.505 218.44 657.105 203.62 657.105 183.08V100.4H677.905V233H657.105V217.14H656.585C649.565 226.5 635.525 236.64 612.905 236.64ZM736.978 236.64C710.198 236.64 693.298 221.3 693.298 198.94C693.298 168.52 715.658 160.2 749.978 153.96C772.598 149.8 782.998 147.2 782.998 134.2C782.998 123.8 777.278 114.7 755.438 114.7C730.218 114.7 722.938 122.24 721.638 141.48H699.798C701.098 116 717.218 96.5 756.218 96.5C780.918 96.5 803.278 106.9 803.278 139.4V203.1C803.278 213.5 804.838 218.7 810.038 218.7C810.818 218.7 811.598 218.7 813.158 218.44V233C809.778 233.78 806.658 234.3 803.018 234.3C791.578 234.3 784.558 229.88 783.258 213.5H782.738C774.158 227.8 759.078 236.64 736.978 236.64ZM715.138 197.9C715.138 210.9 721.898 218.44 739.058 218.44C764.018 218.44 782.998 207.26 782.998 181.78V160.72C779.098 164.88 766.098 168.26 751.798 171.12C726.058 176.32 715.138 182.56 715.138 197.9ZM848.904 162.28V233H828.104V100.4H848.904V126.66H849.424C856.444 109.24 867.104 96.76 886.084 96.76C891.024 96.76 894.664 97.02 898.304 97.54V118.34C895.184 117.82 892.844 117.56 889.724 117.56C865.284 117.56 848.904 136.8 848.904 162.28ZM954.842 236.64C921.562 236.64 895.042 210.38 895.042 166.7C895.042 123.02 921.562 96.76 954.842 96.76C976.162 96.76 988.642 106.12 996.442 117.56H996.962V47.1H1017.76V233H996.962V216.62H996.442C988.642 226.76 976.162 236.64 954.842 236.64ZM916.882 166.7C916.882 192.7 929.622 218.44 956.922 218.44C981.622 218.44 996.962 197.9 996.962 166.7C996.962 135.5 981.622 114.96 956.922 114.96C929.622 114.96 916.882 140.7 916.882 166.7ZM1097.72 236.9C1057.16 236.9 1032.72 208.04 1032.72 166.7C1032.72 125.36 1057.16 96.5 1097.72 96.5C1138.02 96.5 1162.46 125.36 1162.46 166.7C1162.46 208.04 1138.02 236.9 1097.72 236.9ZM1054.56 166.7C1054.56 195.04 1067.82 218.7 1097.72 218.7C1127.36 218.7 1140.62 195.04 1140.62 166.7C1140.62 138.36 1127.36 114.7 1097.72 114.7C1067.82 114.7 1054.56 138.36 1054.56 166.7ZM1203.86 233L1272.5 47.1H1298.76L1367.92 233H1342.7L1326.32 186.46H1244.42L1228.04 233H1203.86ZM1252.22 165.66H1318.78L1285.76 68.68H1285.24L1252.22 165.66ZM1373.78 233V208.04H1398.74V233H1373.78ZM1538.08 236.64C1484 236.64 1454.36 196.08 1454.36 139.92C1454.36 84.02 1489.2 43.46 1540.68 43.46C1587.74 43.46 1612.44 67.9 1618.94 103.26H1594.5C1589.04 76.74 1568.76 64.26 1540.68 64.26C1496.48 64.26 1478.8 105.08 1478.8 139.92C1478.8 175.02 1491.28 215.84 1538.08 215.84C1571.36 215.84 1598.66 191.92 1598.66 157.08H1538.08V136.28H1622.06V233H1606.46L1598.66 206.74H1598.14C1584.1 226.24 1566.68 236.64 1538.08 236.64ZM1678.85 236.64C1652.07 236.64 1635.17 221.3 1635.17 198.94C1635.17 168.52 1657.53 160.2 1691.85 153.96C1714.47 149.8 1724.87 147.2 1724.87 134.2C1724.87 123.8 1719.15 114.7 1697.31 114.7C1672.09 114.7 1664.81 122.24 1663.51 141.48H1641.67C1642.97 116 1659.09 96.5 1698.09 96.5C1722.79 96.5 1745.15 106.9 1745.15 139.4V203.1C1745.15 213.5 1746.71 218.7 1751.91 218.7C1752.69 218.7 1753.47 218.7 1755.03 218.44V233C1751.65 233.78 1748.53 234.3 1744.89 234.3C1733.45 234.3 1726.43 229.88 1725.13 213.5H1724.61C1716.03 227.8 1700.95 236.64 1678.85 236.64ZM1657.01 197.9C1657.01 210.9 1663.77 218.44 1680.93 218.44C1705.89 218.44 1724.87 207.26 1724.87 181.78V160.72C1720.97 164.88 1707.97 168.26 1693.67 171.12C1667.93 176.32 1657.01 182.56 1657.01 197.9ZM1790.77 162.28V233H1769.97V100.4H1790.77V126.66H1791.29C1798.31 109.24 1808.97 96.76 1827.95 96.76C1832.89 96.76 1836.53 97.02 1840.17 97.54V118.34C1837.05 117.82 1834.71 117.56 1831.59 117.56C1807.15 117.56 1790.77 136.8 1790.77 162.28ZM1900.62 236.64C1861.88 236.64 1836.4 208.3 1836.4 166.7C1836.4 125.1 1861.88 96.76 1900.62 96.76C1933.38 96.76 1955.74 118.6 1958.86 148.24H1937.02C1935.98 133.68 1927.14 114.96 1900.62 114.96C1869.16 114.96 1858.24 141.74 1858.24 166.7C1858.24 191.66 1869.16 218.44 1900.62 218.44C1927.4 218.44 1935.98 199.98 1937.02 184.12H1958.86C1957.04 214.28 1933.38 236.64 1900.62 236.64ZM1972.73 233V100.4H1993.53V233H1972.73ZM1970.65 74.66V49.7H1995.61V74.66H1970.65ZM2052.63 236.64C2025.85 236.64 2008.95 221.3 2008.95 198.94C2008.95 168.52 2031.31 160.2 2065.63 153.96C2088.25 149.8 2098.65 147.2 2098.65 134.2C2098.65 123.8 2092.93 114.7 2071.09 114.7C2045.87 114.7 2038.59 122.24 2037.29 141.48H2015.45C2016.75 116 2032.87 96.5 2071.87 96.5C2096.57 96.5 2118.93 106.9 2118.93 139.4V203.1C2118.93 213.5 2120.49 218.7 2125.69 218.7C2126.47 218.7 2127.25 218.7 2128.81 218.44V233C2125.43 233.78 2122.31 234.3 2118.67 234.3C2107.23 234.3 2100.21 229.88 2098.91 213.5H2098.39C2089.81 227.8 2074.73 236.64 2052.63 236.64ZM2030.79 197.9C2030.79 210.9 2037.55 218.44 2054.71 218.44C2079.67 218.44 2098.65 207.26 2098.65 181.78V160.72C2094.75 164.88 2081.75 168.26 2067.45 171.12C2041.71 176.32 2030.79 182.56 2030.79 197.9Z" fill="#0F0F0F"/>
</svg>
